<?xml version="1.0" encoding="UTF-8" standalone="no"?>
<!-- Created with Inkscape (http://www.inkscape.org/) -->

<svg
   xmlns:osb="http://www.openswatchbook.org/uri/2009/osb"
   xmlns:dc="http://purl.org/dc/elements/1.1/"
   xmlns:cc="http://creativecommons.org/ns#"
   xmlns:rdf="http://www.w3.org/1999/02/22-rdf-syntax-ns#"
   xmlns:svg="http://www.w3.org/2000/svg"
   xmlns="http://www.w3.org/2000/svg"
   xmlns:sodipodi="http://sodipodi.sourceforge.net/DTD/sodipodi-0.dtd"
   xmlns:inkscape="http://www.inkscape.org/namespaces/inkscape"
   width="320"
   height="80"
   id="svg2"
   version="1.1"
   inkscape:version="0.92.1 r"
   sodipodi:docname="banner.svg">
  <defs
     id="defs4">
    <linearGradient
       id="linearGradient5314">
      <stop
         style="stop-color:#1d0000;stop-opacity:0.23529412;"
         offset="0"
         id="stop5316" />
      <stop
         id="stop3783"
         offset="0.37307513"
         style="stop-color:#1d0000;stop-opacity:0.09803922;" />
      <stop
         style="stop-color:#1d0000;stop-opacity:0;"
         offset="1"
         id="stop5318" />
    </linearGradient>
    <linearGradient
       id="linearGradient3872"
       osb:paint="gradient">
      <stop
         style="stop-color:#000000;stop-opacity:1;"
         offset="0"
         id="stop3874" />
      <stop
         style="stop-color:#000000;stop-opacity:0;"
         offset="1"
         id="stop3876" />
    </linearGradient>
    <inkscape:path-effect
       effect="spiro"
       id="path-effect3023"
       is_visible="true" />
    <inkscape:path-effect
       effect="spiro"
       id="path-effect3017"
       is_visible="true" />
    <inkscape:path-effect
       effect="spiro"
       id="path-effect3023-0"
       is_visible="true" />
    <inkscape:path-effect
       effect="spiro"
       id="path-effect3023-0-5"
       is_visible="true" />
  </defs>
  <sodipodi:namedview
     id="base"
     pagecolor="#ffffff"
     bordercolor="#666666"
     borderopacity="1.0"
     inkscape:pageopacity="0.0"
     inkscape:pageshadow="2"
     inkscape:zoom="1.8076172"
     inkscape:cx="145.62442"
     inkscape:cy="-55.211071"
     inkscape:document-units="px"
     inkscape:current-layer="layer1"
     showgrid="true"
     width="300px"
     inkscape:object-nodes="true"
     inkscape:window-width="1278"
     inkscape:window-height="986"
     inkscape:window-x="0"
     inkscape:window-y="20"
     inkscape:window-maximized="1"
     objecttolerance="11" />
  <metadata
     id="metadata7">
    <rdf:RDF>
      <cc:Work
         rdf:about="">
        <dc:format>image/svg+xml</dc:format>
        <dc:type
           rdf:resource="http://purl.org/dc/dcmitype/StillImage" />
        <dc:title></dc:title>
      </cc:Work>
    </rdf:RDF>
  </metadata>
  <g
     inkscape:label="Layer 1"
     inkscape:groupmode="layer"
     id="layer1"
     transform="translate(0,-972.36199)">
    <path
       style="fill:#000000;stroke-width:0.25843334"
       d="m 25.804605,983.97309 c 4.207087,-6.38027 20.951676,-2.46734 20.951676,-2.46734 7.12837,5.27626 6.355651,9.90502 6.355651,9.90502 0,0 -0.826635,6.51156 -0.736248,9.85433 0.131151,4.8504 -10.32779,15.6426 -8.733663,21.4759 1.991395,7.287 18.353812,8.3182 21.599572,9.0946 8.90626,2.1304 6.543645,7.4702 6.054733,6.8622 -2.668328,-3.319 -4.592226,-4.2319 -12.490888,-5.9269 -4.403389,-0.9449 -10.216608,-2.7805 -12.83465,-4.0527 -1.657629,-0.8054 -1.880213,-1.0107 -2.595693,-2.393 -0.730916,-1.4121 -1.849365,-4.6843 -2.212791,-6.4738 -0.131735,-0.6487 -0.01312,-0.9407 0.689423,-1.6975 2.088879,-2.2501 4.182108,-6.8136 5.040466,-9.8406 0.244382,-0.8618 0.452521,-1.4056 0.462549,-1.2085 -0.239173,-1.1659 -0.0055,-1.2098 -0.239173,-1.1659 -9.3e-4,-0.2736 -0.230339,-0.85 -0.5098,-1.2809 -0.279468,-0.4309 -0.508878,-0.6412 -0.509798,-0.4673 -0.003,0.4867 -2.275788,-0.7601 -2.290761,-1.2565 -0.06307,-2.0887 1.883316,-3.32047 3.887467,-2.4603 0.372973,0.1601 0.447556,0.051 0.447556,-0.65577 0,-0.4871 0.179857,-0.9822 0.422682,-1.1635 0.428303,-0.3198 0.253941,-1.0522 -0.184616,-0.7754 -0.131255,0.083 -0.238066,-0.3029 -0.238066,-0.85976 0,-0.5556 -0.168967,-1.2383 -0.37549,-1.5171 -0.750804,-1.0136 -0.349148,-1.0015 0.509153,0.015 0.484937,0.5745 0.883137,0.9271 0.884899,0.7835 0.0049,-0.3819 -1.310323,-1.8467 -1.967212,-2.1915 -0.614262,-0.3223 -2.010516,-2.0555 -1.81598,-2.2542 0.0659,-0.067 0.340921,0.1218 0.611089,0.4202 1.374161,1.5181 2.064602,2.1445 2.587044,2.3473 0.332744,0.1292 0.641094,0.53 0.731552,0.9508 0.261657,1.2171 0.356364,1.4193 0.594362,1.2691 0.125711,-0.079 0.370789,0.031 0.544604,0.2446 0.191843,0.23596 0.211605,0.38876 0.05033,0.38876 -0.146159,0 -0.323793,-0.1469 -0.394743,-0.32636 -0.09303,-0.2354 -0.134624,-0.2397 -0.149186,-0.015 -0.01106,0.17106 0.0949,0.38356 0.235559,0.47236 0.411822,0.2599 0.293523,0.7236 -0.141155,0.5532 -0.245107,-0.096 -0.331882,-0.048 -0.226882,0.1254 0.09352,0.1545 0.387192,0.223 0.65264,0.1521 0.580328,-0.155 0.650572,0.2228 0.08275,0.4453 -0.219899,0.086 -0.334272,0.265 -0.254145,0.3974 0.08011,0.1323 9.78e-4,0.3002 -0.175598,0.3729 -0.193822,0.08 -0.14373,0.1404 0.12627,0.1529 0.246155,0.011 0.447556,0.20507 0.447556,0.43047 1.31906,-2.35767 0.115477,-6.48563 0.60304,-2.88827 0.09137,-0.24306 -0.02615,-0.87186 -0.261139,-1.39736 -0.601912,-1.3463 -2.673067,-4.5666 -3.113103,-4.8405 -0.202263,-0.1258 -0.788448,-0.6169 -1.302625,-1.0913 -0.514176,-0.4743 -1.275234,-0.9475 -1.691237,-1.0513 -0.416004,-0.1039 -1.529733,-0.5636 -2.474938,-1.0215 -0.945213,-0.458 -1.750808,-0.73423 -1.790205,-0.6138 -0.03937,0.1204 -0.565747,0.2386 -1.169657,0.2627 -0.808465,0.032 -1.062885,0.1374 -0.9648,0.3984 0.103335,0.275 0.02351,0.2946 -0.355688,0.087 -0.612557,-0.3347 -3.164016,-0.3561 -2.963496,-0.025 0.160232,0.2647 -0.640997,0.604 -1.144951,0.4848 -0.172805,-0.041 -0.361907,0.057 -0.420233,0.2179 -0.06865,0.1893 0.145346,0.2467 0.607396,0.1632 0.539297,-0.098 0.644708,-0.054 0.431878,0.1781 -0.328122,0.358 -1.000533,0.4052 -1.868324,0.1314 -0.452649,-0.1429 -0.564445,-0.1101 -0.422712,0.1241 0.350792,0.5796 1.307806,0.77 2.531188,0.5036 1.05412,-0.2296 1.303938,-0.1904 2.151457,0.3376 0.789604,0.4919 0.891518,0.5121 0.577381,0.1143 -0.209813,-0.2658 -0.842779,-0.693 -1.406588,-0.9495 -1.025114,-0.4664 -1.025114,-0.4664 -0.244108,-0.4848 0.57081,-0.014 1.014479,0.2275 1.648561,0.8956 0.773475,0.8149 1.021617,0.9178 2.287931,0.949 1.420357,0.035 1.420357,0.035 -0.47765,0.291 -1.599458,0.2157 -2.007941,0.1897 -2.596898,-0.1656 -0.871413,-0.5256 -1.933476,-0.536 -2.886964,-0.028 -0.99364,0.5292 -1.116149,0.5064 -2.119719,-0.3933 -0.967922,-0.8679 -1.441871,-0.9455 -2.390492,-0.3918 -0.63936,0.3732 -0.63936,0.3732 0.161455,0.3825 0.61247,0.01 0.965055,0.2291 1.4992,0.9442 0.580603,0.7774 0.808896,0.9067 1.353725,0.7671 0.572701,-0.1468 0.613518,-0.1165 0.323637,0.2402 -0.49282,0.6063 -1.406597,0.4957 -2.30882,-0.2795 -0.566843,-0.487 -1.076076,-0.6812 -1.745892,-0.6655 -2.385018,0.056 -2.265829,0.029 -1.785702,0.4028 0.325821,0.2538 0.364385,0.4176 0.14994,0.6365 -0.214446,0.219 -0.05945,0.2569 0.602598,0.1472 0.775443,-0.1285 1.046883,-0.01 2.08795,0.9098 1.095368,0.9681 1.261545,1.0345 1.963727,0.7845 0.973348,-0.3464 0.968912,-0.454 -0.01753,-0.4254 -0.48522,0.014 -0.994874,-0.1919 -1.33555,-0.5397 -0.303004,-0.3095 -0.417042,-0.5626 -0.253422,-0.5626 0.16361,0 0.368606,0.1175 0.455538,0.2612 0.231514,0.3825 1.458539,0.3032 2.019694,-0.1306 0.266866,-0.2062 0.585704,-0.3116 0.708527,-0.2341 0.122813,0.078 0.575031,-0.1613 1.004921,-0.5307 0.907971,-0.7801 1.296691,-0.8172 2.818424,-0.269 0.746191,0.2689 1.58524,0.355 2.525654,0.2593 1.085242,-0.1105 0.733657,0.034 -1.532789,0.6278 -2.635561,0.6911 -3.035425,0.8744 -3.849687,1.7647 -0.499742,0.5464 -1.011933,1.0142 -1.138184,1.0394 -0.263243,0.053 -0.704404,1.1293 -0.462734,1.1293 0.08755,0 -0.03477,0.2189 -0.27196,0.4865 -0.413477,0.46656 -0.394537,0.48356 0.460463,0.41436 0.490431,-0.04 1.029678,-0.1594 1.198331,-0.2658 0.189083,-0.11926 0.239731,-0.083 0.132097,0.095 -0.388045,0.6411 1.24382,0.8999 1.653154,0.2621 0.08304,-0.1295 0.963781,-0.2587 1.957117,-0.2873 1.640481,-0.047 1.907809,0.021 2.915589,0.7423 1.416165,1.0137 1.645535,1.5111 1.537979,3.33487 -0.07404,1.2562 -0.162924,1.4856 -0.575423,1.4856 -0.360722,0 -0.488833,-0.1871 -0.491731,-0.7182 -0.002,-0.4086 -0.0852,-0.5878 -0.192392,-0.4157 -0.103658,0.1664 -0.593707,0.3801 -1.088984,0.475 -0.771056,0.1477 -0.99975,0.067 -1.59092,-0.5636 -1.593946,-1.6995 -1.735238,-1.79817 -1.984242,-1.3868 -0.18781,0.3103 -0.375794,0.3267 -0.997792,0.087 -0.421506,-0.1624 -0.800709,-0.1954 -0.842671,-0.073 -0.04192,0.1222 -0.536623,0.116 -1.099266,-0.014 -0.94961,-0.219 -1.960289,-1.06727 -2.237292,-1.87787 -0.08863,-0.2594 -0.256017,-0.2184 -0.680873,0.1669 -0.40623,0.3684 -0.520171,0.6865 -0.408561,1.1406 0.784257,6.37557 2.317447,6.94507 3.360218,12.26737 0.382943,3.3607 0.9685,5.0146 1.775409,5.0146 0.198325,0 0.504336,0.235 0.68002,0.5223 0.175685,0.2873 0.459259,0.5223 0.630166,0.5223 0.170905,0 0.747424,0.3026 1.281139,0.6725 0.691489,0.4791 1.173575,0.6309 1.677323,0.528 0.706932,-0.1443 0.706932,-0.1443 0.281978,0.6948 -0.233719,0.4615 -1.357428,1.8429 -2.497128,3.0697 -1.139701,1.2268 -2.475025,2.6975 -2.967374,3.2682 -0.49236,0.5707 -1.515574,1.5665 -2.27382,2.2128 -2.433426,2.0744 -2.493847,2.1543 -2.540148,3.3607 -0.0471,1.2284 -0.757768,2.099 -1.726326,2.1148 -0.291732,0 -1.097318,0.4225 -1.790207,0.9283 -2.075287,0.9925 -3.078773,1.367 -4.541407,1.6684 -1.496771,0.7492 -4.441455,0.5536 -4.441455,0.5536 l 5.930901,-4.7819 c 1.157607,-2.9931 1.008161,-6.2118 1.21947,-7.6177 -1.141952,-5.1773 -1.54279,-9.4845 -1.6324,-14.0581 -0.0099,-0.5058 1.239776,-1.4979 1.202357,-1.9985 -0.03391,-0.4537 -1.725921,-1.8902 -1.95355,-2.26 -0.350278,-0.569 -0.51215,-1.5471 -0.398269,-2.1449 0.114393,-0.6005 1.062773,-1.4247 1.021004,-1.9466 -0.05539,-0.6922 1.410003,-1.2044 1.251288,-1.7169 -0.467443,-1.50947 -0.723441,-1.14767 -2.899443,-0.97437 0,0 -1.473109,4.41667 -2.013157,2.33047 -0.217096,-0.8386 -0.912113,-2.61187 -0.979953,-3.51197 -0.131915,-1.75029 0.105768,-2.64109 0.198342,-4.29605 0.115919,-2.07229 0.934299,-2.1957 1.460442,-3.91724 0.270762,-0.88594 1.419409,-0.89811 1.79482,-1.57964 0,0 0.884244,-3.43086 2.553672,-2.00942 2.000292,1.70314 0.643381,-1.26997 2.032435,-2.72309 z m 1.108902,41.10871 c 0.576873,0.015 0.731767,-0.04 0.435688,-0.1543 -0.417649,-0.1615 -0.400795,-0.2297 0.185439,-0.7502 0.35467,-0.3149 1.098385,-0.8649 1.652693,-1.2223 0.554319,-0.3573 1.087094,-0.7806 1.183956,-0.9406 0.170171,-0.2812 -0.890452,0.2505 -2.639586,1.3232 -0.693868,0.4255 -0.944273,0.4632 -1.406597,0.2117 -0.504934,-0.2747 -0.527281,-0.2625 -0.218549,0.1197 0.29697,0.3677 0.434804,0.7612 -0.193451,1.3524 -0.540012,0.5081 -0.345086,0.5309 0.03458,0.3804 0.281322,-0.1116 0.473522,-0.3329 0.965831,-0.32 z m -1.548281,-4.3909 c -0.133056,-0.2538 -0.241924,-0.654 -0.241924,-0.8891 0,-0.2352 -0.180033,-0.6114 -0.400061,-0.8361 -0.282809,-0.2888 -0.320287,-0.49 -0.127876,-0.6864 0.374727,-0.3827 0.342763,-1.2142 -0.0475,-1.2358 -0.175833,-0.01 -0.06072,-0.1452 0.255742,-0.3011 0.587918,-0.2895 0.780085,-0.7258 0.31968,-0.7258 -0.272174,0 -0.360771,-1.6338 -0.102874,-1.8971 0.287735,-0.2939 0.870101,0.1244 0.870101,0.6249 0,0.2948 0.288568,0.6294 0.703298,0.8154 0.386812,0.1736 0.7737,0.4161 0.859761,0.539 0.08607,0.123 0.229908,0.2135 0.319671,0.2012 0.562064,-0.077 0.710898,0.027 0.5713,0.3985 -0.117056,0.3115 -0.04926,0.3782 0.260795,0.2567 0.230408,-0.09 0.605741,-0.021 0.834063,0.153 0.228332,0.1745 -0.160281,-0.3148 -0.863579,-1.0873 -0.703299,-0.7725 -1.425821,-1.5713 -1.605609,-1.7751 -0.357902,-0.4056 -1.009024,-1.8986 -1.242723,-2.8494 -0.10877,-0.4425 -0.03879,-0.6029 0.263166,-0.6029 0.226246,0 0.411341,-0.1302 0.411341,-0.2894 0,-0.189 -0.24403,-0.2217 -0.703288,-0.094 -0.386811,0.1074 -0.929927,0.1843 -1.20691,0.1708 -0.981026,-0.048 -1.056059,1.3485 -0.08637,1.6075 0.282467,0.075 0.44263,0.2543 0.355933,0.3976 -0.23172,0.3828 -1.35979,0.1129 -1.573322,-0.2543 -0.303293,-0.5215 -3.335245,-8.8906 -3.397076,-9.1829 -0.474359,0.018 1.032611,7.313 2.142221,7.3949 0.09058,0.1497 0.198727,0.8842 0.24025,1.6321 0.07335,1.3216 0.496922,3.5697 0.822047,4.3633 0.08823,0.2154 0.207846,0.6833 0.265722,1.0397 0.05787,0.3564 0.197288,0.7089 0.309818,0.7834 0.19772,0.1309 0.563897,1.0832 0.684712,1.7807 0.09039,0.5219 0.562721,1.0098 0.97755,1.0098 0.278226,0 0.311972,-0.118 0.131929,-0.4616 z m 12.836598,-21.91897 c -0.351282,-0.2988 -0.984032,-0.5136 -1.513144,-0.5136 -1.115601,0 -0.890089,0.2912 0.53629,0.6925 1.518432,0.4272 1.659079,0.4015 0.976854,-0.1789 z m -12.625951,-2.60276 c 0.301954,-0.2873 0.668906,-0.5223 0.815447,-0.5223 0.146541,0 0.266435,-0.1029 0.266435,-0.2285 0,-0.1257 0.374032,-0.3198 0.831176,-0.4313 0.747543,-0.1823 0.770585,-0.214 0.228977,-0.3155 -0.404839,-0.076 -0.923757,0.1511 -1.583407,0.6924 -0.53966,0.4428 -1.052926,0.8052 -1.140593,0.8052 -0.08765,0 -0.445088,-0.3468 -0.794304,-0.7706 -0.374158,-0.454 -0.787518,-0.7107 -1.006459,-0.6249 -0.529552,0.2075 -0.462196,0.5432 0.256193,1.2768 0.201585,0.28551 1.265812,0.26841 2.005169,0.48397 0.311077,0.0907 -0.675782,1.71999 -2.086851,0.87759 -1.301868,-0.77723 -2.650871,0.1389 -3.502542,0.9302 -0.422259,0.3923 2.120148,-0.92 2.604627,-0.2642 0.08749,0.1184 0.841184,0.3967 1.441698,1.0889 0.551753,0.636 0.487376,1.87167 2.331523,2.23347 0.622682,0.1222 1.332816,-0.7011 1.408334,-0.8807 0.206198,-0.4904 0.614039,-1.48427 1.044185,-2.95597 0.191171,-0.65406 1.624869,-0.59553 2.080845,-0.82613 1.492648,-0.75488 1.430277,-0.12014 -0.325844,-0.66758 -1.330105,-0.41464 -3.596111,1.44171 -3.630926,1.76741 -0.201802,1.8881 -3.40798,0.044 -3.388807,-0.572 0.02323,-0.74674 2.027998,-0.98454 2.145124,-1.09596 z m 7.986963,-2.1197 c 0,-0.1269 0.240789,-0.2307 0.535086,-0.2307 0.61337,0 2.038163,-1.0297 1.481415,-1.0706 -0.194791,-0.014 -0.0665,-0.1202 0.28519,-0.2351 0.615946,-0.2015 0.61007,-0.2101 -0.160497,-0.2352 -0.439917,-0.014 -0.943117,0.1503 -1.118215,0.3657 -0.175107,0.2155 -0.455273,0.3918 -0.622584,0.3918 -0.167313,0 -0.550413,0.34 -0.851339,0.7556 -0.523569,0.7232 -0.525645,0.75 -0.04809,0.6225 0.274477,-0.073 0.499038,-0.2371 0.499038,-0.364 z m 18.864528,-2.7854 c -0.125123,-2.0318 -0.735332,-3.2964 -1.835089,-4.02398 -0.501191,-0.3316 -0.91268,-0.7532 -0.914424,-0.9368 -0.0039,-0.3769 -2.479755,-2.8091 -3.605814,-3.5418 -0.791709,-0.5151 -3.104964,-0.7156 -3.877852,-0.3361 -0.329855,0.162 -0.447556,0.1094 -0.447556,-0.1999 0,-0.2308 -0.121874,-0.4197 -0.270833,-0.4197 -0.148961,0 -0.206758,-0.1058 -0.128435,-0.2352 0.07835,-0.1295 -0.427628,-0.2176 -1.124336,-0.1959 -0.979233,0.031 -1.347604,-0.073 -1.622981,-0.4575 -0.196241,-0.2737 -0.488511,-0.4134 -0.65077,-0.311 -0.359321,0.2268 -0.393567,1.1996 -0.04221,1.1996 0.138766,0 0.420606,0.4114 0.626306,0.9141 0.284172,0.6945 0.525577,0.914 1.005097,0.914 0.347101,0 0.669455,-0.102 0.716343,-0.2266 0.135084,-0.3591 1.236093,-0.6337 1.236093,-0.3083 0,0.1722 0.251238,0.2193 0.63936,0.1198 0.393951,-0.1009 0.639361,-0.053 0.639361,0.1256 0,0.1592 -0.172629,0.2895 -0.383618,0.2895 -0.455146,0 -0.488236,0.357 -0.101464,1.095 0.208755,0.3983 0.204789,0.5872 -0.01528,0.726 -0.341195,0.2154 0.493652,0.8573 1.52332,1.1714 0.351644,0.1073 1.013382,0.4141 1.470525,0.68168 0.457133,0.2677 0.831165,0.3857 0.831165,0.2623 0,-0.1234 -0.198179,-0.30198 -0.440388,-0.39698 -0.377252,-0.1478 -0.386419,-0.2074 -0.06395,-0.4156 0.293866,-0.1898 0.236186,-0.2508 -0.262911,-0.2781 -0.351644,-0.019 -0.739786,-0.016 -0.862541,0.01 -0.122744,0.023 -0.153386,-0.1441 -0.06806,-0.3711 0.0853,-0.227 0.01538,-0.6412 -0.155434,-0.9205 -0.254636,-0.4163 -0.232748,-0.5872 0.121589,-0.949 0.383079,-0.3912 0.549422,-0.4017 1.465531,-0.093 0.919174,0.3098 1.033398,0.44 1.033398,1.1786 0,0.6435 0.151556,0.9008 0.673666,1.1437 0.673675,0.3134 0.673675,0.3134 0.505462,-0.7607 -0.110601,-0.7063 -0.07855,-1.0176 0.09353,-0.909 0.143976,0.091 0.262412,0.3051 0.263204,0.4762 0.003,0.5895 0.547622,2.31838 0.686142,2.17688 0.07629,-0.078 0.01635,-0.50028 -0.133214,-0.93848 -0.383696,-1.124 -0.09715,-0.9932 0.38025,0.1735 0.283427,0.69268 0.313228,0.99888 0.104158,1.06998 -0.551244,0.1877 0.26484,0.8324 1.053601,0.8324 0.443581,0 0.685251,0.1086 0.590367,0.2654 -0.08833,0.146 -0.258112,0.2039 -0.377244,0.1287 -0.380572,-0.2402 -1.648168,0.3816 -1.365799,0.6699 0.170495,0.1741 0.494004,0.1686 0.970528,-0.016 1.138085,-0.4418 1.562246,-0.1533 1.629132,1.1083 0.06013,1.1336 0.250728,2.0225 0.433718,2.0225 0.07037,-0.5988 0.0749,-1.0222 0.05836,-1.5138 z m -9.489201,-5.80208 c -0.249269,-0.4309 -0.337346,-0.7835 -0.195721,-0.7835 0.141615,0 0.359871,0.1868 0.484995,0.4151 0.125134,0.2284 0.303473,0.4046 0.396319,0.3918 0.09284,-0.013 0.168821,0.035 0.168821,0.1071 v 0.3918 c 0,0.5022 -0.404968,0.2546 -0.854414,-0.5223 z m 2.939602,-1.7299 c -0.515999,-0.2299 -0.973006,-0.29 -1.150846,-0.1512 -0.396397,0.3095 -1.238187,-0.5769 -0.887758,-0.9347 0.396692,-0.4051 3.021501,0.5934 3.228728,1.2282 0.117525,0.3601 -0.129305,0.3306 -1.190124,-0.1423 z m -6.891851,-0.6865 c -0.437773,-0.5387 0.208903,-1.2152 0.908833,-0.9508 0.644218,0.2434 0.716422,0.5049 0.26627,0.9646 -0.395458,0.4038 -0.83993,0.3986 -1.175103,-0.014 z m -11.560921,4.90398 c 0,-0.068 -0.34526,-0.3062 -0.767238,-0.529 -0.846148,-0.44678 -1.018884,-1.26658 -0.347706,-1.65008 0.236371,-0.1351 0.33808,-0.3743 0.232973,-0.548 -0.306431,-0.5063 -0.908236,0.1952 -0.908236,1.0587 0,0.5719 0.201833,0.881 0.831165,1.27278 0.895662,0.5577 0.959042,0.5838 0.959042,0.3956 z m 10.996976,-2.24128 c 0,-0.1416 -0.288441,-0.3917 -0.640976,-0.5558 -0.352536,-0.164 -0.611481,-0.4708 -0.575422,-0.6818 0.03966,-0.2322 -0.184812,-0.4245 -0.568872,-0.4872 -0.551018,-0.09 -0.580936,-0.06 -0.227548,0.2304 0.495375,0.4067 0.81246,1.2481 0.470324,1.2481 -0.136238,0 -0.04633,0.2164 0.199835,0.481 0.453618,0.4876 1.342659,0.3322 1.342659,-0.2347 z m 1.622541,0.1926 c -0.09676,-0.1696 0.05425,-0.1027 0.335643,0.1487 0.684153,0.6111 0.907148,0.5757 0.808847,-0.1282 -0.09676,-0.6927 -1.158905,-1.282 -1.936581,-1.0743 -0.550587,0.147 -0.550587,0.147 -0.01047,0.893 0.505785,0.6986 1.187432,0.8352 0.802579,0.1608 z m -11.201306,-1.9846 c 0,-0.5628 -0.105509,-0.9567 -0.234472,-0.8753 -0.128963,0.081 -0.58267,0.1378 -1.00824,0.1255 -0.425581,-0.012 -1.099502,0.1495 -1.497613,0.3597 -0.785501,0.4148 -0.987049,0.7168 -0.298274,0.4469 0.234071,-0.092 0.360136,-0.059 0.280156,0.073 -0.08265,0.1366 0.319603,0.2025 0.931602,0.1527 0.752352,-0.061 1.178441,0.037 1.413492,0.3265 0.185066,0.2277 0.353778,0.414 0.374912,0.414 0.02115,0 0.03849,-0.4605 0.03849,-1.0234 z m 4.333439,0.1912 c -0.792082,-0.6362 -0.819012,-0.9909 -0.06141,-0.8082 0.567686,0.1369 0.568538,0.1331 0.06395,-0.2773 -0.727291,-0.5916 -0.972849,-0.5295 -0.834211,0.2111 0.0663,0.354 0.0069,0.6825 -0.132311,0.7298 -0.480628,0.1636 0.571318,0.931 1.087328,0.7932 0.490772,-0.1311 0.485337,-0.1597 -0.123382,-0.6486 z m 4.554749,-1.1126 c -0.06375,-0.8869 -0.503073,-1.4502 -1.130947,-1.4502 -0.264094,0 -0.480176,-0.089 -0.480176,-0.1977 0,-0.2645 -2.36601,-0.074 -2.663618,0.2139 -0.134926,0.1307 -0.36411,0.045 -0.541127,-0.2021 -0.265564,-0.3708 -0.425963,-0.0628 -0.425963,-0.0628 0,0 -5.713418,2.2614 -1.819986,0.4014 -0.420753,0.2655 -0.992552,1.15275 -0.54246,1.15275 0.220233,0 0.650799,-0.1369 0.956808,-0.3041 0.30601,-0.1672 1.36298,-0.3196 2.348815,-0.3386 1.455709,-0.028 1.864495,0.055 2.176047,0.4448 0.457026,0.571 1.55877,1.2152 1.918081,1.1215 0.140657,-0.037 0.23269,-0.3873 0.204526,-0.7792 z m 0.179083,32.68051 c -0.756778,-0.2635 -0.907912,-0.4487 -0.97801,-1.1984 -0.04985,-0.5332 0.0521,-0.974 0.255742,-1.1058 0.437656,-0.2834 0.789712,-0.2888 0.620745,-0.01 -0.07247,0.1197 0.0069,0.2361 0.176713,0.2586 1.334933,0.1771 2.52205,0.5098 1.970758,0.5523 -0.63935,0.049 -0.63935,0.049 0,0.3118 0.621577,0.2553 0.625553,0.273 0.142928,0.6363 -0.273036,0.2056 -0.388123,0.3756 -0.255743,0.3778 0.132381,0 0.06806,0.1179 -0.142927,0.2571 -0.479324,0.3163 -0.677475,0.3075 -1.790206,-0.08 z m 2.173824,-1.986 c -0.562633,-0.098 -1.334394,-0.3882 -1.715025,-0.6453 -0.380622,-0.2572 -0.8002,-0.3993 -0.932395,-0.3158 -0.132194,0.083 -0.49704,-0.061 -0.810766,-0.32 -0.509184,-0.421 -0.532892,-0.533 -0.22086,-1.0432 0.363906,-0.595 1.104124,-0.7619 1.377355,-0.3104 0.176803,0.2921 1.150845,0.3616 1.150845,0.082 0,-0.099 -0.237478,-0.4371 -0.52774,-0.7526 -0.888032,-0.9653 -0.571525,-3.4291 0.323147,-2.5156 0.168791,0.1724 0.756367,0.3134 1.305731,0.3134 0.693025,0 1.232106,0.2005 1.760709,0.6547 0.419029,0.36 0.859261,0.5931 0.978283,0.518 0.551998,-0.3484 0.438674,0.4116 -0.129412,0.8679 -0.352987,0.2836 -0.6418,0.6273 -0.6418,0.7639 0,0.1366 -0.230163,0.4611 -0.511485,0.7211 -0.630781,0.5829 -0.658975,0.9622 -0.06395,0.8602 0.326389,-0.056 0.447557,0.099 0.447557,0.5725 0,0.7287 -0.274035,0.8128 -1.790206,0.5491 z m -8.485209,-9.4423 c 75.18538,30.6272 37.592693,15.3136 0,0 z"
       id="path12430"
       inkscape:connector-curvature="0"
       sodipodi:nodetypes="cccssscccccccccccccsccsccccccccccscccccccccccccccccccccccccccccccccccccccccccccccccccccscccccccccsccccccccsccccccccccccssscccscccccccccsssssscssssssccccccccccccccccccscsccccccsccsscccccscccsccsccccscccscccsccccssssssssssssccccccscccccccccssccccscscscssccccsccccccccsccccccccsccccccccccssscccssccssccssccscssccccscscccccccccccccccscccccccccccccccccsscccccccccccccccccccccccsccscccsccsccccccc" />
    <text
       xml:space="preserve"
       style="font-style:normal;font-variant:normal;font-weight:600;font-stretch:normal;font-size:15.26086998px;line-height:0%;font-family:'URW Gothic L';-inkscape-font-specification:'URW Gothic L Semi-Bold';letter-spacing:0px;word-spacing:0px;fill:#241c1c;fill-opacity:1;stroke:none;stroke-width:1.27173913"
       x="62.520061"
       y="1011.3783"
       id="text2987"><tspan
         sodipodi:role="line"
         id="tspan2989"
         x="62.520061"
         y="1011.3783"
         style="font-style:normal;font-variant:normal;font-weight:bold;font-stretch:normal;font-size:50.86956406px;line-height:1.25;font-family:Z003;-inkscape-font-specification:'Z003 Bold';fill:#241c1c;stroke-width:1.27173913">dea</tspan></text>
    <flowRoot
       xml:space="preserve"
       id="flowRoot2991"
       style="font-style:normal;font-weight:normal;line-height:0.01%;font-family:sans-serif;letter-spacing:0px;word-spacing:0px;fill:#000000;fill-opacity:1;stroke:none"
       transform="translate(-1.1917882,973.59592)"><flowRegion
         id="flowRegion2993"
         style="font-family:sans-serif"><rect
           id="rect2995"
           width="16.428572"
           height="79.285713"
           x="23.571428"
           y="76.428574"
           style="font-family:sans-serif" /></flowRegion><flowPara
         id="flowPara2997"
         style="font-size:40px;line-height:1.25;font-family:sans-serif"> </flowPara></flowRoot>    <text
       xml:space="preserve"
       style="font-style:normal;font-variant:normal;font-weight:500;font-stretch:normal;line-height:0%;font-family:Ubuntu;-inkscape-font-specification:'Ubuntu Medium';text-align:end;letter-spacing:0px;word-spacing:0px;text-anchor:end;fill:#000000;fill-opacity:0.98823529;stroke:none"
       x="296.27228"
       y="984.95642"
       id="text2999"><tspan
         sodipodi:role="line"
         x="300.72931"
         y="984.95642"
         id="tspan3005"
         style="font-style:normal;font-variant:normal;font-weight:500;font-stretch:normal;font-size:14px;line-height:1.25;font-family:Ubuntu;-inkscape-font-specification:'Ubuntu Medium';text-align:end;text-anchor:end;fill:#000000;fill-opacity:0.98823529">Data Exploration </tspan><tspan
         sodipodi:role="line"
         x="296.27228"
         y="1002.4564"
         style="font-style:normal;font-variant:normal;font-weight:500;font-stretch:normal;font-size:14px;line-height:1.25;font-family:Ubuntu;-inkscape-font-specification:'Ubuntu Medium';text-align:end;text-anchor:end;fill:#000000;fill-opacity:0.98823529"
         id="tspan12413">Application</tspan><tspan
         sodipodi:role="line"
         x="296.27228"
         y="1010.6869"
         style="font-style:normal;font-variant:normal;font-weight:500;font-stretch:normal;font-size:14px;line-height:1.25;font-family:Ubuntu;-inkscape-font-specification:'Ubuntu Medium';text-align:end;text-anchor:end;fill:#000000;fill-opacity:0.98823529"
         id="tspan3010" /></text>
    <path
       style="fill:#000000;fill-opacity:1;stroke-width:0.2650978"
       d="m 93.630432,1036.5156 0.79583,-0.4701 0.79584,-0.4703 0.23452,0.1448 0.23452,0.1448 0.2802,-0.3377 0.2802,-0.3376 0.0812,-1.5815 0.0812,-1.5814 1.92196,-0.2439 1.921958,-0.2439 v -1.1173 -1.1173 l 0.65341,-0.4282 0.65342,-0.4281 h 0.81294 0.81294 l 0.1526,0.3975 0.15259,0.3977 h 0.37761 0.3776 l 0.15259,0.3977 0.1526,0.3977 h 1.95987 1.95987 l 0.004,-4.1753 0.004,-4.1753 0.19477,-0.2712 0.19477,-0.2712 0.7443,-0.4739 0.74432,-0.474 0.71372,0.082 0.71373,0.083 0.0723,4.838 0.0723,4.8382 h 1.45205 1.45206 l 0.0161,-1.2592 0.0161,-1.2592 1.27011,-2.2534 1.27011,-2.2533 0.82171,-0.083 0.8217,-0.083 0.16325,-0.5143 0.16326,-0.5143 h 1.19989 1.19989 l 0.13515,0.5168 0.13514,0.5168 1.2318,0.08 1.23179,0.08 0.075,2.9824 0.075,2.9822 h 0.64574 0.64575 l -0.13917,-0.3627 -0.13915,-0.3625 0.97208,-0.5734 0.97209,-0.5737 -0.12777,-0.5883 -0.12776,-0.5878 -0.18813,-0.4462 -0.18813,-0.4459 0.80955,-0.4188 0.80953,-0.4185 -0.15352,-0.7676 -0.15353,-0.7676 0.69559,-0.4558 0.6956,-0.4558 -0.27431,-0.3305 -0.2743,-0.3305 0.15762,-0.4107 0.15762,-0.4109 0.37715,-0.1447 0.37715,-0.1448 v -0.6619 -0.6617 l 0.50359,-0.2695 0.50359,-0.2695 0.18682,-1.6095 0.18682,-1.6097 0.43625,0.082 0.43626,0.082 0.13545,1.5187 0.13546,1.5186 0.61638,0.4317 0.61636,0.4318 -0.13145,0.5026 -0.13146,0.5026 0.53454,0.2861 0.53452,0.2862 -0.14351,0.7177 -0.14357,0.7179 0.54202,0.3386 0.54203,0.3383 -0.15473,0.7736 -0.15473,0.7733 0.65713,0.4305 0.37398,0.5619 -0.1448,0.9134 0.78803,-1.3436 0.36007,-0.299 0.12609,-5.2369 0.12608,-5.2371 0.30759,-0.5748 0.30757,-0.5747 0.56403,-0.179 0.33746,-0.2042 -0.0495,-1.2429 -0.0243,-1.2681 0.3733,-0.4927 0.3733,-0.4929 0.008,-1.351 0.008,-1.3511 0.17225,-2.4266 0.17225,-2.4266 h 0.45357 0.45358 l 0.16717,1.3918 0.16715,1.3918 0.003,2.2689 0.002,2.2689 0.38923,0.5145 0.38921,0.5146 0.008,1.2472 0.008,1.2471 0.66274,0.6629 0.66275,0.6627 v 1.1895 1.1892 l 0.26508,0.1639 0.26511,0.1638 v 4.1728 4.1731 l 0.31811,0.318 0.31812,0.3181 h 4.17068 4.17068 l 0.1267,-0.4638 0.12671,-0.4641 0.32117,-2.187 0.32116,-2.1871 h 0.33688 0.33688 l 0.16091,0.4195 0.1609,0.4192 v 0.7909 0.7911 l 0.26164,0.4888 0.26163,0.4889 0.53366,-0.14 0.53367,-0.1402 0.0296,-0.3004 0.0296,-0.3004 0.10491,-0.9279 0.10491,-0.9279 0.26313,-0.088 0.26299,-0.088 0.0315,-3.0927 0.0313,-3.0927 0.20235,-0.7954 c 0,0 0.17686,-0.068 0.2653,-0.1014 l 0.26607,-0.1643 0.26607,-0.1644 -0.16817,-0.6702 -0.16818,-0.67 0.32559,-1.1031 0.32559,-1.1032 0.24841,-0.4748 0.2484,-0.4749 0.1636,-2.1216 0.1636,-2.1214 0.42372,0.081 0.42373,0.081 0.16941,2.1182 0.16943,2.1182 0.20147,0.7952 0.20145,0.7956 0.20631,0.1353 0.20631,0.137 0.0856,1.0566 0.0856,1.0568 0.39765,0.31 0.39765,0.3097 v 3.5993 3.5993 h 0.33137 0.33136 v 1.3254 1.3256 h 0.5302 0.53019 v -3.0331 -3.0328 l 0.24655,-0.1525 0.24655,-0.1526 0.14928,-1.3875 0.14928,-1.3877 0.12811,-4.711 0.12811,-4.7111 0.27928,-0.522 0.27928,-0.5217 0.7783,-0.4026 0.77832,-0.4023 -0.13543,-0.3533 -0.13541,-0.353 0.43194,-0.3585 0.43192,-0.3584 0.4417,0.2795 0.4417,0.2796 0.003,0.4379 0.003,0.4382 0.83167,0.5057 0.83165,0.5057 0.3156,0.9563 0.3156,0.9562 -0.23766,0.7212 -0.23766,0.7211 0.13465,4.1089 0.13464,4.1092 0.18624,-1.4581 0.18621,-1.458 0.0262,-3.6248 0.026,-3.6249 0.6863,-0.8157 0.68632,-0.8156 h 0.37408 0.37408 l -0.1068,-0.6532 0.1068,-0.689 0.40101,-0.1542 0.40103,-0.154 0.40563,0.3367 0.22765,0.1765 c 0,0 0.0377,0.6533 0.009,1.0042 l 0.74597,0.3228 0.74593,0.3227 0.41006,0.9813 0.41004,0.9815 -0.13746,0.684 -0.13744,0.6841 0.25669,4.3741 0.2567,4.3742 0.12858,0.5963 0.12857,0.5965 h 7.89723 7.89721 l 0.40847,0.3315 0.40849,0.3313 2.32155,3.265 2.32155,3.265 0.39094,-0.151 0.39094,-0.1495 h 0.37597 0.37597 l 0.0271,-2.5846 0.0271,-2.5847 0.56936,-2.7836 0.56939,-2.7836 h 0.38247 0.38245 l 0.5945,3.1813 0.59448,3.1813 0.0211,1.4578 0.0212,1.458 0.27207,0.3977 0.27208,0.3977 -0.0694,-4.3025 -0.0694,-4.3026 0.30638,-0.3064 0.30639,-0.3063 -0.38962,-0.3896 -0.38959,-0.3896 0.17201,-0.5686 0.17201,-0.5685 0.54595,-0.5965 0.54594,-0.5964 h 0.35143 0.35144 v -1.5375 -1.5376 l 0.27064,-0.2707 0.27062,-0.2705 0.16534,-1.7708 0.16536,-1.7706 h 0.49186 0.49186 v 1.6 1.5998 l 0.41653,0.6357 0.41654,0.6358 -0.17843,1.1898 -0.17841,1.1899 0.81441,0.4212 0.81441,0.421 0.27296,0.5101 0.27296,0.5101 v 0.6801 0.6803 h -0.31811 -0.31813 l 0.31813,0.318 0.31811,0.3181 v 4.3939 4.3937 l 2.52194,1.2528 2.52193,1.2528 h 0.76373 0.76371 l 0.11644,-2.187 0.11642,-2.1871 -0.35344,-0.2943 -0.3535,-0.2943 v -0.4347 -0.4348 h 1.93012 1.93011 l 0.31246,-0.8277 0.31246,-0.8279 0.40437,0.1558 0.40436,0.1555 0.27846,-0.5202 0.27846,-0.5204 h 0.37899 0.379 l 0.28771,0.5377 0.28775,0.5375 0.23042,-0.1416 0.23043,-0.1417 0.419,0.4189 0.41902,0.4191 v 0.3787 0.3787 h 1.97258 1.9726 l 0.19038,0.3081 0.19036,0.308 -0.57237,0.4636 -0.57237,0.4634 v 0.2889 0.2888 h 0.20551 0.20552 l -0.10039,2.7172 -0.10041,2.7173 0.0937,0.6438 0.0937,0.6437 1.15892,-1.5054 1.1589,-1.5053 h 0.29143 0.29146 l 1.532,1.516 1.53201,1.5162 v 1.9301 1.9302 h 0.64104 0.64107 l 0.41932,-0.1608 0.41933,-0.1608 v -0.8994 -0.8995 l 0.72902,-1.3216 0.72905,-1.3218 h 5.10311 5.10314 v 0.5301 0.5302 h 0.33136 0.33139 l 0.5717,-0.1526 0.57173,-0.1541 0.16117,-1.2348 0.16116,-1.2347 0.15771,-2.9957 0.15772,-2.9957 -0.45705,-0.5049 -0.45708,-0.5052 0.1088,-0.9321 0.10881,-0.9321 -0.34353,-0.1323 -0.34352,-0.1323 c 0,-0.5266 0.0178,-1.169 0.0178,-1.6956 l 0.78901,-0.3492 0.45078,-0.8922 0.18975,-3.1791 0.18976,-3.179 h 0.60537 0.60538 l 0.18438,2.9824 0.16659,3.3472 c 0.19908,0.3706 0.45506,0.7994 0.45506,0.7994 0,0 0.49555,0.3114 0.64997,0.3203 l 0.0267,1.7533 -0.24765,0.1436 -0.33664,0.2061 0.15068,0.9289 0.15067,0.9289 -0.46371,0.5125 -0.46371,0.5124 0.10181,3.7061 0.1018,3.7062 0.16639,0.1665 0.16639,0.1665 2.26868,-0.6922 2.26866,-0.6919 1.8014,0.08 2.0028,0.1049 0.0637,1.8306 h 2.65096 2.65098 l 0.0747,3.1149 0.0747,3.115 0.002,1.353 c 0,0 0,0 -173.392148,0.069 z m 172.604438,-0.074 -4e-5,6e-4 0.0321,-3.8181 -0.0747,-3.1149 h -1.97983 -1.97982 l -0.003,1.6569 -0.003,1.6569 -0.006,1.0782 -1.44425,-0.017 -0.0748,-3.1365 -0.0749,-3.1361 -1.78082,0.1 -1.7808,0.1012 -2.30407,0.6431 -2.30405,0.6432 -0.18704,-0.1869 -0.18706,-0.1871 -0.13013,-4.5063 -0.0678,-4.4171 0.50778,-0.1532 0.32088,-0.2778 -0.0714,-1.6806 c 0,0 0.11763,-1.2219 0.1644,-1.5397 l -0.3628,-0.7568 c -0.19356,-0.3476 -0.18655,-0.3563 -0.31309,-0.5646 0.0132,-0.7914 0.0135,-0.953 -0.0215,-1.5569 l -0.10161,-1.663 -0.5443,-0.01 -0.0987,1.6867 -8.1e-4,1.5087 -0.37743,0.7235 -0.37744,0.7233 0.14896,1.53 -0.0379,1.6186 0.5781,0.3613 0.33781,0.049 -0.2453,4.8547 -0.29867,4.4543 -0.43867,0.3281 -0.43865,0.3279 -0.87979,0.165 -0.87979,0.1651 -0.39966,-0.1541 -0.39962,-0.1542 v -0.5385 -0.5385 h -4.36876 -4.36876 l -0.79816,1.3918 -0.79817,1.3917 -0.002,0.8682 -0.002,0.8681 -0.71404,0.2714 -0.71404,0.2715 -0.94282,-0.08 -0.94309,-0.08 -0.0776,-2.1207 -0.0775,-2.1209 -1.21806,-1.2388 -1.21805,-1.2391 -1.18336,1.4527 -1.18334,1.4527 -0.56973,-0.081 -0.56975,-0.081 -0.16552,-3.844 -0.1655,-3.8439 -0.0333,-0.4638 -0.0334,-0.4641 h -1.31618 -1.31616 l -0.28376,-0.5302 -0.28374,-0.5301 h -0.37899 -0.37899 l -0.3144,-0.5876 -0.31436,-0.5872 -0.39002,0.5872 -0.39004,0.5876 h -0.35598 -0.356 l -0.28374,0.5301 -0.28376,0.5302 h -1.27923 l -1.48063,0.025 c -0.0293,2.1203 -0.13387,3.5449 -0.13618,5.5421 h -1.45661 -1.45659 l -2.65243,-1.2311 -2.65223,-1.2312 v -4.472 -4.4722 l -0.32474,-0.5199 -0.32474,-0.52 0.32474,-0.3248 0.32474,-0.3246 v -0.4512 -0.4509 l -0.92785,-0.5474 -0.92783,-0.5475 v -1.4344 -1.4346 l -0.37406,-0.3104 -0.37403,-0.3105 -0.19971,0.3232 -0.19969,0.3231 0.0566,1.3992 0.0566,1.3994 -0.80052,0.414 -0.80052,0.4139 -0.27366,0.5114 -0.27367,0.5114 0.26581,0.1642 0.26582,0.1643 v 0.6029 0.6031 l -0.15968,0.1595 -0.15965,0.1597 -0.0391,4.9877 -0.0391,4.9876 h -0.38922 -0.38921 l -0.60054,-1.0603 -0.60055,-1.0605 -0.0109,-1.5906 -0.0109,-1.5905 -0.26076,-1.193 -0.26076,-1.1929 -0.16913,-0.6627 -0.16912,-0.6628 -0.24264,0.9278 -0.24266,0.928 -0.18256,3.3067 -0.18254,3.3068 -0.56819,0.2824 -0.56821,0.2822 -0.41429,0.344 -0.4143,0.3438 -0.21797,-0.1354 -0.21796,-0.1338 -2.64345,-3.7268 -2.64347,-3.7262 h -8.01309 -8.01309 l -0.37172,-0.5965 -0.37173,-0.5966 -0.2941,-4.8242 -0.29412,-4.8244 0.15812,-0.4119 0.1581,-0.412 -0.16434,-0.6548 -0.16434,-0.6548 -0.57697,-0.5376 -0.57698,-0.5376 h -0.73053 -0.73051 l -0.69442,0.5974 -0.69441,0.5973 -0.0932,2.7958 -0.0932,2.7957 -0.19101,3.1019 -0.19101,3.1017 h -0.35228 -0.35229 l -0.31429,-0.5871 -0.3143,-0.5873 -0.0719,-5.3683 -0.0719,-5.3682 -0.17863,-0.5629 -0.17862,-0.5629 -0.81767,-0.3437 -0.81766,-0.3438 -0.75568,0.2634 -0.75567,0.2635 -0.4064,0.7858 -0.40641,0.7859 0.15021,0.7098 0.15021,0.7097 -0.23862,4.9964 -0.23864,4.996 -0.29238,0.2925 -0.29241,0.2923 v 3.2284 3.2283 l -0.37688,0.3126 -0.37686,0.313 -0.4847,-0.2611 -0.48469,-0.2609 -0.46393,-0.1432 -0.46391,-0.1432 v -1.0688 -1.0687 h -0.36678 -0.36679 l 0.14026,-3.4591 0.14024,-3.4591 -0.23743,0.043 -0.23744,0.043 -0.33941,-0.031 -0.33944,-0.031 0.0481,-1.6036 0.0481,-1.6034 -0.30515,-0.3053 -0.30518,-0.305 v -0.7268 -0.7267 l -0.23731,-0.1463 -0.23732,-0.1463 -0.16033,0.4178 -0.16033,0.4178 v 0.6255 0.6253 l -0.2651,0.1638 -0.2651,0.1638 v 1.5441 1.544 l -0.57114,0.1495 -0.57116,0.1493 0.15724,3.3279 0.15725,3.3279 h -0.36614 -0.36616 l -0.0816,1.1267 -0.0816,1.1266 -0.56013,0.08 -0.56017,0.08 -0.29573,0.6491 -0.29572,0.649 h -0.40334 -0.40332 v -1.0448 -1.0447 l -0.25733,-0.159 -0.25734,-0.1591 -0.13511,0.6074 -0.13496,0.6074 -0.0716,0.9277 -0.0716,0.9278 -4.61526,0.073 -4.61527,0.073 -0.60297,-0.5663 -0.60296,-0.5665 -0.11767,-4.278 -0.11769,-4.278 -0.16949,-1.3255 -0.1695,-1.3255 -0.45924,-0.3223 -0.45922,-0.3223 -0.32019,-0.2742 -0.32018,-0.2741 h -0.51779 -0.51413 l -0.82256,0.7216 -0.82254,0.7219 v 1.2222 1.2224 l -0.17067,0.1706 -0.17067,0.1707 0.0548,3.9542 0.0548,3.9544 -0.83941,0.9561 -0.83942,0.9559 h -0.53365 -0.53363 l 0.12219,-0.639 0.12219,-0.6389 -0.65459,-0.2983 -0.6546,-0.2983 0.14904,-0.9184 0.14904,-0.9183 h -0.22948 -0.22949 l -0.42559,-0.4257 -0.42558,-0.4254 0.16689,-0.5261 0.16689,-0.5256 -0.56816,-0.3981 -0.56816,-0.3979 0.0668,-0.44 0.0667,-0.4402 -0.37242,-0.5795 -0.37244,-0.5795 -0.40401,0.5768 -0.40401,0.577 0.0756,0.5762 0.0756,0.5763 -0.54669,0.1733 -0.54669,0.1736 0.15226,0.6066 0.15224,0.6067 -0.43575,0.4356 -0.43576,0.4359 h -0.22949 -0.22951 l 0.14905,0.9183 0.14905,0.9184 -0.63053,0.2874 -0.63051,0.2872 0.0915,1.1508 0.0915,1.1508 -0.77679,0.4588 -0.77681,0.459 0.12061,0.6308 0.12061,0.631 h -1.62149 -1.6215 v -3.0487 -3.0486 h -1.17657 -1.17508 l -0.16828,-0.5302 -0.16829,-0.5301 h -0.63554 -0.63555 l -0.28377,0.5301 -0.28375,0.5302 h -0.71968 -0.71969 l -1.12667,2.0954 -1.12667,2.0953 v 1.0604 1.0605 l -0.16091,0.4193 -0.16091,0.4193 h -1.93152 -1.93151 l -0.16091,-0.4193 -0.16091,-0.4193 v -4.4849 -4.4851 h -0.33935 -0.33865 l -0.58918,0.4127 -0.58919,0.4127 v 4.4917 4.4915 h -2.78353 -2.78352 v -0.4653 -0.4656 l -0.72902,-0.3225 -0.72902,-0.3224 -0.59647,0.1561 -0.59647,0.1561 v 1.3029 1.3029 l -0.33137,0.1058 -0.33137,0.1059 -1.777748,0.1711 -1.77775,0.1713 -0.0779,1.7641 -0.0528,2.016 m 121.812868,-6.843 -0.0251,-1.5143 v -1.2622 l 0.4166,-0.4167 0.41658,-0.4164 h 0.45824 0.45825 l 0.31811,0.318 0.31812,0.3182 v 1.5376 1.5374 c -0.78984,0.033 -1.57427,-0.042 -2.36073,-0.1016 z m 1.6979,-2.6818 c -0.30755,-0.01 -0.61411,0.012 -0.92115,0.025 0.0771,0.6586 0.0155,1.3069 -0.0388,1.9632 h 1.1244 c -0.0545,-0.6628 -0.10948,-1.3256 -0.16438,-1.9883 z m 0.92792,0.3639 v -1.581 l 0.6507,-0.6507 0.65068,-0.6507 h 0.35072 0.35071 l 0.58918,0.4127 0.5892,0.4128 v 2.2383 2.2381 h -1.42969 -1.71448 c 0,0 -0.037,-1.5361 -0.037,-2.4195 z m 2.60636,0.7208 0.0879,-0.7708 -0.16139,-0.8605 -0.16142,-0.8603 -0.42403,-0.1627 -0.42404,-0.1629 -0.36404,0.3024 -0.36406,0.302 v 1.5749 1.575 l 0.86158,-0.084 0.86155,-0.082 z m 0.82211,1.6302 0.0178,-1.525 v -1.2404 l 0.4848,-0.4386 0.4848,-0.4387 h 0.40197 0.40195 l 0.45439,0.502 0.45442,0.5022 c -0.0715,0.8807 -0.009,1.7453 -0.0392,2.628 l -1.19461,0.024 z m 1.82322,-1.7209 -0.0824,-0.994 h -0.39765 -0.39764 l -0.0824,0.994 -0.0824,0.9942 h 0.56218 0.56221 z m -94.32453,-10.8027 v -0.1323 h -0.13254 -0.13255 v 0.1323 0.1324 h 0.13255 0.13254 z m 25.97957,-3.4463 v -0.1323 h -0.13247 -0.13246 v 0.1323 0.1324 h 0.13246 0.13247 z m 3.44629,0 v -0.1323 h -0.13247 -0.13247 v 0.1323 0.1324 h 0.13247 0.13247 z m -19.89083,-2.6302 -1.82579,0.03 0.0295,0.936 1.75935,-0.014 z m -0.46429,-1.0439 c 0,0 -0.0594,-0.2692 -0.0889,-0.4031 -0.0451,-1.9878 -0.44685,-6.0241 -0.44685,-6.0241 l -0.42826,6.0733 -0.1663,0.3318 -0.31736,0.3826 h 0.82775 0.82776 c -0.20099,-0.3065 -0.18677,-0.2706 -0.20784,-0.3605 z m 110.75345,0.2278 v -0.1322 h -0.13247 -0.13247 v 0.1322 0.1323 h 0.13247 0.13247 z m 0,-0.7954 v -0.1322 h -0.13247 -0.13247 v 0.1322 0.1323 h 0.13247 0.13247 z m -83.77089,-6.6274 v -0.1323 h -0.13247 -0.13247 v 0.1323 0.1323 h 0.13247 0.13247 z m 6.09724,0 v -0.1323 h -0.13245 -0.13247 v 0.1323 0.1323 h 0.13247 0.13245 z m -6.09724,-0.5302 v -0.1323 h -0.13247 -0.13247 v 0.1323 0.1324 h 0.13247 0.13247 z"
       id="path12417"
       inkscape:connector-curvature="0"
       sodipodi:nodetypes="ccccccccccccccccccccccccccccccccccccccccccccccccccccccccccccccccccccccccccccccccccccccccccccccccccccccccccccccccccccccccccccccccccccccccccccccccccccccccccccccccccccccccccccccccccccccccccccccccccccccccccccccccccccccccccccccccccccccccccccccccccccccccccccccccccccccccccccccccccccccccccccccccccccccccccccccccccccccccccccccccccccccccccccccccccccccccccccccccccccccccccccccccccccccccccccccccccccccccccccccccccccccccccccccccccccccccccccccccccccccccccccccccccccccccccccccccccccccccccccccccccccccccccccccccccccccccccccccccccccccccccccccccccccccccccccccccccccccccccccccccccccccccccccccccccccccccccccccccccccccccccccccccccccccccccccccccccccccccccccccccccccccccccccccccccccccccccccccccccccccccccccccccccccccccccccccccccccccccccccccccccccccccccccccccccccccccccccccccccccccccccccccccccccccccccccccccccccccccccccccccccccccccccccccccccccccccccccccccccccccccccccccccccccccccccccccccccccccccccccccccccccccccccccccccccccccccccccccccccccccccc" />
    <path
       style="fill:#c50000;fill-opacity:1;stroke:#b50000;stroke-width:0.30000001;stroke-miterlimit:4;stroke-dasharray:none;stroke-opacity:1"
       d="m 166.28451,1050.1499 c -0.20063,-0.3975 -0.58465,-3.7705 -0.85337,-7.4956 -0.26873,-3.725 -0.49662,-7.1652 -0.50641,-7.6448 -0.0157,-0.7712 -0.0826,-0.7125 -0.57737,0.5065 -0.49402,1.2173 -0.60938,1.3187 -0.98466,0.8666 -0.3764,-0.4536 -0.49084,-0.3653 -0.99973,0.7714 -0.31607,0.7061 -0.66701,1.2837 -0.77984,1.2837 -0.11284,0 -0.98791,-0.4296 -1.94459,-0.9546 -1.62346,-0.8911 -1.79911,-0.9239 -2.63458,-0.4918 -0.6786,0.3509 -1.16905,0.3873 -2.02724,0.1503 -0.62264,-0.1719 -1.44409,-0.5652 -1.82543,-0.874 -0.67808,-0.549 -0.72457,-0.5316 -2.11146,0.7972 -1.24104,1.1892 -1.49577,1.3104 -2.03973,0.9707 -0.34189,-0.2135 -0.6216,-0.486 -0.6216,-0.6057 0,-0.1196 -0.37111,-0.6585 -0.82467,-1.1975 -0.45357,-0.539 -0.96258,-0.9801 -1.13114,-0.9801 -0.16856,0 -0.5161,0.5017 -0.77231,1.1148 -0.39794,0.9526 -0.61788,1.115 -1.50908,1.115 -0.5738,0 -1.6013,-0.2845 -2.28335,-0.6322 -0.68204,-0.3478 -1.35997,-0.8136 -1.5065,-1.0353 -0.19833,-0.3 -0.46369,-0.1802 -1.03796,0.4684 -0.6541,0.7391 -0.97015,0.8526 -2.07668,0.7459 -0.71783,-0.069 -1.50206,-0.289 -1.74271,-0.4889 -0.32706,-0.2713 -0.49411,-0.2714 -0.66165,-4e-4 -0.13736,0.2223 -0.62939,0.2865 -1.27119,0.1662 -0.7684,-0.1442 -1.197,-0.047 -1.61027,0.3667 -0.34475,0.3448 -0.60842,0.4274 -0.67987,0.213 -0.0641,-0.1926 -0.30165,-0.603 -0.52768,-0.9122 -0.28782,-0.3936 -0.62201,-0.4949 -1.11534,-0.3385 -0.38742,0.123 -1.05918,0.7857 -1.49279,1.4725 -0.43361,0.6869 -0.93225,1.2489 -1.10809,1.2489 -0.17584,0 -0.56223,-0.5375 -0.85866,-1.1945 -0.29644,-0.657 -0.8208,-1.517 -1.16526,-1.9112 -0.34447,-0.3941 -0.7993,-0.7167 -1.01077,-0.7167 -0.21146,0 -0.55417,0.6809 -0.76157,1.513 -0.20743,0.8323 -0.5861,1.8356 -0.84152,2.2299 -0.25541,0.3941 -0.74503,0.7167 -1.08805,0.7167 -0.39303,0 -0.69478,-0.2834 -0.81596,-0.7662 -0.10574,-0.4214 -0.53632,-1.0894 -0.95681,-1.4844 -0.42048,-0.3951 -0.85675,-1.2099 -0.96947,-1.8107 -0.20495,-1.0924 -0.20495,-1.0924 -0.89095,0.1305 -0.68603,1.2231 -0.68603,1.2231 -23.053318,1.305 -12.301995,0.044 -22.367202,-0.027 -22.367119,-0.1593 8.3e-5,-0.1326 9.846534,-0.2796 21.880979,-0.3267 2.40492,-0.01 4.54888,-0.019 6.460778,-0.028 13.915,-0.07 15.53753,-0.1636 16.00719,-0.5887 0.32292,-0.2921 0.76324,-0.8988 0.97851,-1.348 0.21525,-0.449 0.53278,-0.8165 0.70562,-0.8165 0.17282,0 0.52925,0.6709 0.79205,1.491 0.26279,0.82 0.80033,1.8328 1.19451,2.2504 0.3942,0.4175 0.71672,0.9292 0.71672,1.137 0,0.2076 0.1258,0.3775 0.27955,0.3775 0.15373,0 0.42981,-0.1811 0.6135,-0.4024 0.18368,-0.2213 0.50861,-1.1172 0.72205,-1.9908 0.21345,-0.8737 0.52108,-1.759 0.68363,-1.9674 0.22375,-0.2868 0.54058,-0.242 1.30433,0.1847 0.5704,0.3187 1.28701,1.141 1.64901,1.8919 0.35211,0.7306 0.75095,1.3284 0.88629,1.3284 0.13535,0 0.41369,-0.3678 0.61854,-0.8175 0.20485,-0.4496 0.87063,-1.0255 1.47949,-1.28 1.0305,-0.4305 1.15608,-0.4165 1.8167,0.2042 0.60552,0.5688 0.80438,0.6076 1.35468,0.264 0.49194,-0.3073 0.75076,-0.3151 1.09073,-0.033 0.34419,0.2857 0.61476,0.2516 1.18751,-0.1495 0.68687,-0.481 0.77038,-0.4804 1.1283,0.011 0.22753,0.3112 0.83074,0.5298 1.46631,0.5315 0.82956,0 1.28234,-0.2377 1.95405,-1.0352 0.87426,-1.0382 0.87426,-1.0382 1.43343,-0.3728 0.30753,0.3659 0.9922,0.9616 1.52147,1.3236 0.62742,0.4291 1.26023,0.6011 1.81832,0.4945 0.62591,-0.1197 0.95181,-0.4539 1.2125,-1.244 0.1961,-0.5941 0.3957,-1.0802 0.44357,-1.0802 0.0479,0 0.5475,0.1604 1.11028,0.3567 0.6323,0.2205 1.33805,0.8554 1.8472,1.6619 0.82137,1.3011 0.8254,1.3031 1.2929,0.599 0.25794,-0.3885 0.60171,-0.7063 0.76394,-0.7063 0.16223,0 0.64486,-0.3943 1.07252,-0.876 0.77756,-0.876 0.77756,-0.876 1.33851,-0.1967 0.30853,0.3738 0.87406,0.8395 1.25674,1.0354 0.38266,0.1957 0.99692,0.3557 1.36498,0.3557 0.36808,0 1.02623,-0.2338 1.46253,-0.5197 0.68284,-0.4475 0.86981,-0.458 1.34259,-0.076 0.3021,0.244 1.01544,0.7013 1.58519,1.0161 0.56975,0.3147 1.17507,0.4862 1.34514,0.3811 0.17007,-0.1056 0.46199,-0.7584 0.6487,-1.4518 0.18701,-0.6945 0.53663,-1.2607 0.77845,-1.2607 0.24145,0 0.50592,0.1791 0.58772,0.3982 0.10766,0.2882 0.19608,0.2663 0.32027,-0.08 0.0944,-0.2628 0.2626,-1.0245 0.37389,-1.6928 0.12209,-0.7328 0.35262,-1.1649 0.58113,-1.0887 0.2083,0.069 0.47519,0.6878 0.59307,1.3743 0.11787,0.6863 0.38972,3.8282 0.60409,6.9816 0.21436,3.1535 0.49769,5.855 0.62964,6.0032 0.13195,0.1483 0.32658,-0.2818 0.43256,-0.9556 0.10596,-0.6738 0.47994,-6.1705 0.83105,-12.2146 0.3511,-6.0443 0.80966,-11.59 1.01902,-12.3235 0.33156,-1.1618 0.4296,-1.2639 0.76043,-0.7915 0.20888,0.2982 0.61024,3.1202 0.89192,6.2711 0.28168,3.1509 0.65998,8.0914 0.84066,10.9788 0.18069,2.8875 0.43274,5.3542 0.56016,5.4816 0.12739,0.1273 0.39322,0.13 0.59073,0.011 0.2077,-0.1304 0.50057,-2.0386 0.69465,-4.5259 0.18455,-2.3651 0.46353,-5.0653 0.61994,-6.0003 0.15642,-0.935 0.44509,-1.7994 0.6415,-1.9208 0.19643,-0.1214 0.45244,-0.8167 0.56893,-1.5452 0.1165,-0.7286 0.40138,-1.3974 0.63306,-1.4863 0.29615,-0.1136 0.53228,0.3771 0.79514,1.6527 0.20563,0.9979 0.57254,2.2014 0.81534,2.6745 0.2428,0.473 0.44145,1.2574 0.44145,1.7431 0,0.8831 0,0.8831 0.55188,0.095 0.55188,-0.7876 0.55188,-0.7876 0.77799,0.4866 0.12437,0.7008 0.23437,2.0183 0.24448,2.9276 0.0103,0.9095 0.1627,1.7427 0.33913,1.8519 0.17644,0.1089 0.41224,-0.062 0.52399,-0.3794 0.11181,-0.3178 0.46649,-0.7926 0.7883,-1.0555 0.33041,-0.2698 0.86528,-1.5759 1.22872,-3.0002 0.35399,-1.3874 0.70541,-2.5844 0.78095,-2.6599 0.0755,-0.075 0.27808,-0.051 0.45008,0.056 0.17203,0.1067 0.41154,1.2474 0.53225,2.5356 0.12073,1.2883 0.34788,2.5415 0.5048,2.7851 0.19406,0.3012 0.36169,0.3335 0.5242,0.1012 0.1314,-0.1879 0.46798,-0.4259 0.74794,-0.5289 0.36985,-0.1359 0.56577,-0.7974 0.71647,-2.4187 0.11407,-1.2273 0.29453,-2.4586 0.40102,-2.7361 0.10652,-0.2775 0.30627,-0.5046 0.44398,-0.5046 0.1377,0 0.34678,0.2509 0.46461,0.5575 0.11782,0.3065 0.42428,1.7758 0.68101,3.265 0.25674,1.4892 0.5384,2.9418 0.62591,3.228 0.0875,0.2862 0.40562,0.5013 0.70687,0.4778 0.30125,-0.024 0.71397,-0.4009 0.91716,-0.839 0.2032,-0.4379 0.45677,-1.1904 0.56352,-1.6723 0.10675,-0.4818 0.37662,-0.8759 0.59974,-0.8759 0.22312,0 0.57819,-0.645 0.78906,-1.4335 0.23141,-0.8652 0.56682,-1.4334 0.8462,-1.4334 0.25455,0 0.84534,0.5016 1.31288,1.1145 0.53942,0.7072 1.04005,2.0073 1.37,3.558 0.28597,1.344 0.67909,2.4962 0.87359,2.5604 0.19872,0.065 0.50391,-0.551 0.69661,-1.4079 0.18864,-0.8385 0.50374,-2.1905 0.70024,-3.0042 0.2819,-1.1673 0.51702,-1.5101 1.11439,-1.6242 0.41643,-0.08 0.89491,-0.059 1.0633,0.046 0.16839,0.1044 0.47887,0.8358 0.68995,1.6242 0.21107,0.7884 0.45515,1.5503 0.54239,1.693 0.0872,0.1429 0.42827,0.015 0.75783,-0.2826 0.32959,-0.2983 0.69181,-1.0358 0.80496,-1.6389 0.11315,-0.6031 0.42335,-1.1801 0.68936,-1.2821 0.26602,-0.1023 0.65981,0.055 0.8751,0.3496 0.21528,0.2945 0.55974,1.3909 0.76546,2.4365 0.31698,1.6111 0.46957,1.8867 1.00025,1.8056 0.34442,-0.053 0.75651,-0.2297 0.91575,-0.3938 0.15925,-0.1641 0.52847,-1.2301 0.82051,-2.3689 0.29204,-1.1386 0.68051,-2.2513 0.86329,-2.4725 0.24405,-0.2953 0.44433,-0.3091 0.75392,-0.052 0.23188,0.1925 0.55553,0.2672 0.71924,0.166 0.16371,-0.1013 0.51755,0.1516 0.7863,0.5618 0.26875,0.4102 0.58996,1.7738 0.71377,3.0304 0.12382,1.2566 0.34354,2.3579 0.48826,2.4473 0.14471,0.09 0.4692,-0.2362 0.7211,-0.7237 0.25188,-0.4876 0.63025,-1.5267 0.8408,-2.3094 0.21054,-0.7825 0.61934,-1.9687 0.90844,-2.6361 0.31616,-0.7298 0.71175,-1.1773 0.99275,-1.1232 0.30315,0.059 0.622,0.8721 0.90826,2.3176 0.24261,1.2252 0.64203,2.3422 0.88758,2.4823 0.24556,0.1402 0.44648,0.5975 0.44648,1.0166 0,0.4188 0.12019,0.8359 0.26709,0.9267 0.14688,0.091 0.5081,-0.94 0.80268,-2.2906 0.29458,-1.3506 0.7915,-2.7879 1.10427,-3.1939 0.50698,-0.6581 0.66126,-0.6959 1.42263,-0.3491 0.7006,0.3193 0.89074,0.6664 1.05873,1.9328 0.11261,0.8489 0.32118,1.5435 0.46347,1.5435 0.14229,0 0.35447,-0.1549 0.47152,-0.3443 0.11705,-0.1895 0.54902,-0.26 0.95994,-0.1568 0.453,0.1137 1.2325,-0.065 1.98012,-0.4552 0.8767,-0.457 1.53312,-0.5827 2.27162,-0.435 0.57125,0.1143 1.11332,0.4025 1.20461,0.6403 0.0912,0.2378 0.35599,0.4325 0.58823,0.4325 0.23224,0 0.51325,-0.2867 0.62446,-0.6371 0.11125,-0.3503 0.30005,-0.6516 0.41964,-0.6694 0.11959,-0.018 0.75642,-0.081 1.41517,-0.1414 1.10389,-0.1012 1.23362,-0.024 1.65608,0.9881 0.25209,0.6033 0.57758,1.0969 0.72331,1.0969 0.14573,0 0.42929,-0.4355 0.63015,-0.9675 0.30638,-0.8117 0.4902,-0.9362 1.14155,-0.7727 0.5425,0.1362 0.83432,0.043 0.9688,-0.3067 0.10585,-0.2758 0.41645,-0.5014 0.69024,-0.5014 0.2738,0 0.58196,0.2192 0.68481,0.4873 0.11887,0.3098 0.40766,0.4172 0.79278,0.2949 0.47675,-0.1512 0.71175,0.062 1.10327,0.9984 0.49748,1.1907 0.49748,1.1907 2.14371,-0.6394 1.16978,-1.3004 1.79722,-1.7706 2.16798,-1.6247 0.28695,0.1133 0.69978,0.8415 0.91738,1.6187 0.32345,1.1553 0.5313,1.4131 1.13937,1.4131 0.43893,0 0.89653,-0.2855 1.11657,-0.6967 0.20506,-0.3831 0.64013,-0.9835 0.96683,-1.3342 0.3267,-0.3507 0.59399,-0.7372 0.59399,-0.8589 0,-0.1217 0.29733,-0.2991 0.66072,-0.3941 0.3985,-0.1045 0.84747,0.039 1.13131,0.3611 0.25882,0.2935 0.73165,0.8852 1.05073,1.3149 0.55926,0.7529 0.6281,0.7651 1.91284,0.3411 1.30213,-0.4297 1.35183,-0.4191 2.1666,0.4595 0.80305,0.8661 0.84278,0.8752 1.07453,0.2488 0.13236,-0.3578 0.38981,-0.7426 0.57214,-0.8553 0.18235,-0.1128 0.80158,0.042 1.37612,0.3439 0.57453,0.3019 1.25963,0.5828 1.52243,0.624 0.26278,0.041 0.78331,0.1708 1.1567,0.2877 0.48388,0.1516 0.8806,0 1.38098,-0.5313 0.38616,-0.4092 0.95261,-1.227 1.25883,-1.8173 0.55674,-1.0735 0.55674,-1.0735 1.21317,-0.2389 0.36104,0.4589 0.84158,0.8344 1.06787,0.8344 0.22628,0 0.73981,0.3085 1.14116,0.6856 0.72974,0.6855 0.72974,0.6855 1.98068,-0.683 0.82418,-0.9016 1.42098,-1.3032 1.74941,-1.1772 0.27416,0.1057 0.70338,0.6818 0.95385,1.2812 0.25044,0.5994 0.62152,1.1925 0.82461,1.318 0.20307,0.1256 0.70605,0.2652 1.1177,0.3104 0.52937,0.059 0.85165,-0.1443 1.10096,-0.6916 0.30574,-0.6709 0.48927,-0.7431 1.38348,-0.5442 0.56704,0.1262 1.51348,0.2126 2.10321,0.1919 0.58974,-0.021 1.26265,-0.1954 1.49536,-0.3885 0.32022,-0.2658 0.56086,-0.1904 0.98943,0.3102 0.31147,0.3638 0.73191,0.6614 0.93432,0.6614 0.2024,0 0.53456,-0.2006 0.73812,-0.4459 0.20355,-0.2453 0.86049,-0.4461 1.45986,-0.4461 0.59937,0 1.25279,0.1964 1.45203,0.4366 0.30354,0.3657 0.5618,0.3348 1.59257,-0.1911 0.67667,-0.3453 1.4039,-0.6277 1.61608,-0.6277 0.21219,0 0.65038,0.2396 0.97379,0.5322 0.32339,0.2927 1.12306,0.5537 1.77703,0.5801 0.86557,0.035 1.478,-0.1862 2.25107,-0.8128 0.98742,-0.8005 1.12508,-0.8296 1.9598,-0.4132 0.49378,0.2463 0.97533,0.65 1.07013,0.8971 0.0948,0.247 0.45264,0.599 0.79522,0.7825 0.52158,0.2791 0.83706,0.1255 1.93982,-0.9448 1.31695,-1.278 1.31695,-1.278 2.42125,-0.754 0.60737,0.2883 1.10429,0.6511 1.10429,0.8063 0,0.1553 -0.12579,0.2823 -0.27954,0.2823 -0.15374,0 -0.45797,-0.2151 -0.67607,-0.4779 -0.21811,-0.2627 -0.59279,-0.4778 -0.83266,-0.4778 -0.23986,0 -0.61514,0.2868 -0.83397,0.6371 -0.21882,0.3504 -0.56084,0.6371 -0.76004,0.6371 -0.1992,0 -0.54062,0.215 -0.75873,0.4778 -0.21809,0.2628 -0.57599,0.4777 -0.79531,0.4777 -0.21933,0 -0.94649,-0.5015 -1.61594,-1.1148 -0.66945,-0.6132 -1.37919,-1.1149 -1.57721,-1.1149 -0.19801,0 -0.68805,0.3492 -1.08893,0.7759 -0.55087,0.5863 -1.05071,0.7724 -2.04639,0.7618 -0.72464,-0.011 -1.69211,-0.2328 -2.14996,-0.5003 -0.75449,-0.4407 -0.97045,-0.4335 -2.30589,0.076 -1.03744,0.3962 -1.59229,0.4652 -1.87512,0.2332 -0.22094,-0.1813 -0.84741,-0.306 -1.39214,-0.2774 -0.54476,0.028 -1.21647,0.2397 -1.4927,0.4689 -0.37031,0.3074 -0.66768,0.3283 -1.13194,0.08 -0.34632,-0.1853 -0.69039,-0.5177 -0.76458,-0.7387 -0.10653,-0.3174 -0.31031,-0.3085 -0.96891,0.042 -0.56716,0.3022 -1.35239,0.3829 -2.45414,0.2524 -1.49643,-0.1772 -1.64716,-0.1326 -1.97407,0.5848 -0.28666,0.6293 -0.51124,0.739 -1.18156,0.5772 -0.45517,-0.1101 -1.22146,-0.4748 -1.70284,-0.8114 -0.48136,-0.3364 -0.96443,-0.9672 -1.07348,-1.4017 -0.18137,-0.7227 -0.24466,-0.748 -0.74256,-0.2974 -0.29936,0.2709 -0.67634,0.4936 -0.83775,0.4945 -0.16139,0 -0.54084,0.4368 -0.84319,0.9681 -0.53669,0.9431 -0.56881,0.9535 -1.35379,0.4392 -0.44224,-0.2898 -0.80405,-0.6537 -0.80405,-0.8087 0,-0.1552 -0.26914,-0.282 -0.59809,-0.282 -0.32893,0 -0.77651,-0.2149 -0.99461,-0.4778 -0.2181,-0.2628 -0.50496,-0.4778 -0.63743,-0.4778 -0.13249,0 -0.41392,0.4178 -0.62541,0.9283 -0.21148,0.5105 -0.78414,1.0939 -1.27257,1.2961 -0.53246,0.2206 -1.38248,0.2772 -2.12281,0.1414 -0.67912,-0.1246 -1.51751,-0.4211 -1.86308,-0.659 -0.34557,-0.238 -0.79589,-0.4327 -1.00071,-0.4327 -0.20483,0 -0.46235,0.3585 -0.57228,0.7964 -0.10991,0.438 -0.41215,0.7964 -0.67161,0.7964 -0.25945,0 -0.47173,-0.1269 -0.47173,-0.282 0,-0.155 -0.36205,-0.5191 -0.80455,-0.809 -0.65803,-0.4311 -1.02058,-0.4655 -1.99087,-0.1884 -1.15396,0.3293 -1.21943,0.3019 -2.39929,-1.0048 -1.21296,-1.3432 -1.21296,-1.3432 -1.99628,-0.4055 -0.43083,0.5156 -1.00559,1.3435 -1.27725,1.8395 -0.278,0.5075 -0.67642,0.8318 -0.9114,0.7416 -0.2296,-0.088 -0.57772,10e-5 -0.77362,0.1959 -0.26251,0.2626 -0.47495,0.1938 -0.80799,-0.2616 -0.2485,-0.3399 -0.61314,-1.1565 -0.81032,-1.8146 -0.19717,-0.6581 -0.48649,-1.1965 -0.64292,-1.1965 -0.15645,0 -0.82441,0.6809 -1.48435,1.513 -0.65995,0.8322 -1.3085,1.6431 -1.44125,1.8022 -0.1397,0.1674 -0.46224,0.1056 -0.76583,-0.1462 -0.28847,-0.2394 -0.6549,-0.7782 -0.81428,-1.1975 -0.17827,-0.4688 -0.46297,-0.6958 -0.73987,-0.5894 -0.24755,0.094 -0.62447,-0.037 -0.8376,-0.2942 -0.3392,-0.4087 -0.45733,-0.4038 -0.9477,0.04 -0.30811,0.2788 -0.8199,0.4615 -1.13731,0.4062 -0.37023,-0.065 -0.62206,0.1277 -0.70255,0.5364 -0.069,0.3503 -0.27093,0.8163 -0.44874,1.0351 -0.17778,0.219 -0.43987,0.3983 -0.5824,0.3983 -0.14254,0 -0.57381,-0.5598 -0.9584,-1.2442 -0.50193,-0.893 -0.95291,-1.2814 -1.59819,-1.376 -0.74456,-0.109 -0.96285,0.023 -1.27102,0.7663 -0.20465,0.494 -0.55215,0.8983 -0.77223,0.8983 -0.22009,0 -0.56617,-0.2001 -0.76906,-0.4446 -0.20289,-0.2444 -0.86148,-0.5369 -1.46355,-0.6499 -0.73584,-0.138 -1.42422,-0.035 -2.10004,0.3145 -0.55295,0.2861 -1.32562,0.4588 -1.71703,0.384 -0.45388,-0.087 -0.84389,0.075 -1.07671,0.4485 -0.20077,0.3214 -0.49577,0.5845 -0.65557,0.5845 -0.1598,0 -0.38429,-0.4659 -0.49888,-1.0353 -0.11457,-0.5694 -0.41937,-1.5011 -0.67732,-2.0704 -0.25795,-0.5695 -0.6599,-1.0353 -0.89322,-1.0353 -0.23332,0 -0.57437,0.3942 -0.75787,0.876 -0.1835,0.4817 -0.56903,1.9869 -0.85671,3.3447 -0.33994,1.6043 -0.67391,2.4686 -0.95385,2.4686 -0.23692,0 -0.52932,-0.4658 -0.64974,-1.0352 -0.12043,-0.5694 -0.47576,-1.322 -0.78961,-1.6723 -0.31386,-0.3505 -0.73897,-1.4633 -0.9447,-2.4731 -0.20573,-1.0097 -0.48686,-1.7661 -0.62473,-1.681 -0.13786,0.086 -0.50304,1.0545 -0.8115,2.1538 -0.30845,1.0994 -0.95234,2.6843 -1.43086,3.5222 -0.73276,1.2829 -0.93142,1.4493 -1.25905,1.0545 -0.21396,-0.2577 -0.52492,-1.5164 -0.69101,-2.7967 -0.1661,-1.2805 -0.38037,-2.6789 -0.47618,-3.1078 -0.13175,-0.5899 -0.24054,-0.6724 -0.44656,-0.339 -0.21311,0.3447 -0.37184,0.3581 -0.72957,0.061 -0.37955,-0.315 -0.57004,-0.085 -1.1213,1.3558 -0.36523,0.9544 -0.76003,2.247 -0.87732,2.8722 -0.1173,0.6253 -0.32413,1.2054 -0.45962,1.289 -0.13547,0.085 -0.42215,-0.06 -0.63705,-0.3185 -0.21491,-0.2589 -0.51885,-0.3917 -0.67542,-0.2949 -0.15659,0.097 -0.36835,-0.085 -0.47061,-0.4016 -0.10225,-0.3178 -0.31026,-0.8644 -0.46226,-1.2148 -0.152,-0.3503 -0.43237,-1.2506 -0.62306,-2.0005 -0.19069,-0.7498 -0.4671,-1.289 -0.61426,-1.1979 -0.14716,0.091 -0.35852,0.6501 -0.46969,1.2427 -0.11114,0.5926 -0.48357,1.402 -0.82755,1.7986 -0.49857,0.5748 -0.71765,0.6445 -1.08016,0.3437 -0.25009,-0.2075 -0.62496,-1.087 -0.83302,-1.9543 -0.21814,-0.9092 -0.55751,-1.577 -0.80158,-1.577 -0.23281,0 -0.62705,0.2039 -0.87612,0.453 -0.24905,0.2489 -0.62641,1.5287 -0.83856,2.8438 -0.21216,1.3153 -0.592,2.5625 -0.84409,2.7717 -0.35543,0.295 -0.56211,0.2942 -0.92053,0 -0.25421,-0.211 -0.55744,-1.0188 -0.67384,-1.795 -0.11641,-0.7762 -0.33845,-1.4896 -0.49342,-1.5854 -0.15499,-0.095 -0.28178,-0.4713 -0.28178,-0.8344 0,-0.3632 -0.29838,-1.1432 -0.66307,-1.7332 -0.36467,-0.59 -0.77769,-1.0729 -0.91779,-1.0729 -0.14011,0 -0.42093,0.6599 -0.62405,1.4667 -0.25181,1 -0.56786,1.5185 -0.99343,1.6298 -0.34328,0.09 -0.62492,0.3974 -0.6259,0.6835 -9.7e-4,0.2862 -0.1493,1.0515 -0.32959,1.7005 -0.24312,0.8754 -0.4567,1.1308 -0.82671,0.9889 -0.27441,-0.1056 -0.6201,0 -0.76818,0.2442 -0.22393,0.3624 -0.29386,0.3568 -0.41548,-0.034 -0.0805,-0.2578 -0.37743,-1.2205 -0.66003,-2.1391 -0.28261,-0.9188 -0.60244,-2.317 -0.71076,-3.1073 -0.17545,-1.28 -0.24321,-1.3758 -0.62112,-0.878 -0.2333,0.3075 -0.42875,1.007 -0.43433,1.5544 -0.005,0.5475 -0.10215,1.4556 -0.21469,2.0182 -0.1125,0.5626 -0.43503,1.1092 -0.7167,1.2146 -0.28169,0.1057 -0.66829,0.4 -0.8591,0.6545 -0.30194,0.4026 -0.37093,0.4 -0.53182,-0.019 -0.10174,-0.2651 -0.27591,-1.181 -0.38715,-2.0356 -0.11126,-0.8547 -0.26888,-1.8763 -0.35025,-2.2705 -0.0814,-0.3942 -0.27716,-0.7168 -0.4351,-0.7168 -0.15794,0 -0.38749,0.466 -0.5101,1.0354 -0.12262,0.5693 -0.43929,1.4582 -0.70369,1.9753 -0.26442,0.517 -0.65985,1.1191 -0.87873,1.338 -0.21888,0.2188 -0.49576,1.05 -0.61529,1.8471 -0.12938,0.8629 -0.38439,1.4493 -0.63024,1.4493 -0.27121,0 -0.48314,-0.672 -0.61756,-1.9581 -0.11255,-1.0768 -0.20464,-2.5102 -0.20464,-3.1853 0,-0.6751 -0.14335,-1.2274 -0.31855,-1.2274 -0.17518,0 -0.31853,0.2866 -0.31853,0.637 0,0.3503 -0.13369,0.6371 -0.29707,0.6371 -0.16339,0 -0.37042,-0.2508 -0.46006,-0.5574 -0.0897,-0.3066 -0.30984,-1.3839 -0.48936,-2.394 -0.17952,-1.0102 -0.60546,-2.4436 -0.94654,-3.1853 -0.3435,-0.7472 -0.63212,-1.0953 -0.64699,-0.7803 -0.0147,0.3128 -0.26347,0.9298 -0.5527,1.3712 -0.28921,0.4414 -0.56949,1.2606 -0.62284,1.8204 -0.0534,0.5598 -0.30861,3.383 -0.56725,6.2737 -0.25867,2.8908 -0.48009,5.3634 -0.49206,5.4948 -0.0119,0.1315 -0.1651,0.2389 -0.3403,0.2389 -0.17519,0 -0.32289,-0.2508 -0.32822,-0.5574 -0.009,-0.5144 -0.0359,-0.5123 -0.34991,0.028 -0.31687,0.545 -0.36925,0.5292 -0.76354,-0.2308 -0.25109,-0.484 -0.5611,-2.99 -0.76196,-6.1597 -0.18624,-2.9389 -0.51125,-7.5295 -0.72224,-10.2013 -0.21099,-2.6719 -0.4868,-4.8577 -0.61293,-4.8577 -0.12612,0 -0.3125,1.0392 -0.41418,2.3094 -0.10174,1.2701 -0.33162,4.9611 -0.51099,8.2024 -0.17937,3.2411 -0.47861,7.8997 -0.66497,10.3525 -0.18635,2.4528 -0.51634,4.9997 -0.73329,5.66 -0.38264,1.1645 -0.40541,1.179 -0.75927,0.4778 z"
       id="path12477"
       inkscape:connector-curvature="0"
       sodipodi:nodetypes="ccccccsccccccscscsccccccccccccsccsccscccccccsccsccsscccccscccccccccccccscccscccscccccscccccccccccsccccccccccscccccccccccccccsccccccscscsccccccccsccsccccccsccccccccscssccscccccsccccscccsccccccscsscccccccccccccscccccccccccscsccsccccccccsscscscscscccccccccccccccccccsscsccccscsscccccccccsccccccccccscccscccccsccsccsccccccccccccccccccccccccsccccccscscccccccccccccccccsccccscssssccccccccscccccscccccc" />
  </g>
</svg>
